<?xml version="1.0" standalone="no"?>
<svg xmlns="http://www.w3.org/2000/svg" width="300" height="300"><defs><clipPath id="clip-path-dot-color"><rect x="0" y="96" width="12" height="12" transform="rotate(0,6,102)"/><rect x="0" y="108" width="12" height="12" transform="rotate(0,6,114)"/><rect x="0" y="132" width="12" height="12" transform="rotate(0,6,138)"/><rect x="0" y="168" width="12" height="12" transform="rotate(0,6,174)"/><rect x="12" y="96" width="12" height="12" transform="rotate(0,18,102)"/><rect x="12" y="108" width="12" height="12" transform="rotate(0,18,114)"/><rect x="12" y="132" width="12" height="12" transform="rotate(0,18,138)"/><rect x="12" y="156" width="12" height="12" transform="rotate(0,18,162)"/><rect x="24" y="96" width="12" height="12" transform="rotate(0,30,102)"/><rect x="24" y="108" width="12" height="12" transform="rotate(0,30,114)"/><rect x="24" y="120" width="12" height="12" transform="rotate(0,30,126)"/><rect x="24" y="132" width="12" height="12" transform="rotate(0,30,138)"/><rect x="24" y="180" width="12" height="12" transform="rotate(0,30,186)"/><rect x="36" y="96" width="12" height="12" transform="rotate(0,42,102)"/><rect x="36" y="108" width="12" height="12" transform="rotate(0,42,114)"/><rect x="36" y="120" width="12" height="12" transform="rotate(0,42,126)"/><rect x="36" y="144" width="12" height="12" transform="rotate(0,42,150)"/><rect x="36" y="156" width="12" height="12" transform="rotate(0,42,162)"/><rect x="36" y="192" width="12" height="12" transform="rotate(0,42,198)"/><rect x="48" y="96" width="12" height="12" transform="rotate(0,54,102)"/><rect x="48" y="108" width="12" height="12" transform="rotate(0,54,114)"/><rect x="48" y="144" width="12" height="12" transform="rotate(0,54,150)"/><rect x="48" y="156" width="12" height="12" transform="rotate(0,54,162)"/><rect x="48" y="192" width="12" height="12" transform="rotate(0,54,198)"/><rect x="60" y="120" width="12" height="12" transform="rotate(0,66,126)"/><rect x="60" y="132" width="12" height="12" transform="rotate(0,66,138)"/><rect x="60" y="168" width="12" height="12" transform="rotate(0,66,174)"/><rect x="60" y="180" width="12" height="12" transform="rotate(0,66,186)"/><rect x="60" y="192" width="12" height="12" transform="rotate(0,66,198)"/><rect x="72" y="96" width="12" height="12" transform="rotate(0,78,102)"/><rect x="72" y="120" width="12" height="12" transform="rotate(0,78,126)"/><rect x="72" y="144" width="12" height="12" transform="rotate(0,78,150)"/><rect x="72" y="168" width="12" height="12" transform="rotate(0,78,174)"/><rect x="72" y="192" width="12" height="12" transform="rotate(0,78,198)"/><rect x="84" y="96" width="12" height="12" transform="rotate(0,90,102)"/><rect x="84" y="108" width="12" height="12" transform="rotate(0,90,114)"/><rect x="84" y="120" width="12" height="12" transform="rotate(0,90,126)"/><rect x="84" y="180" width="12" height="12" transform="rotate(0,90,186)"/><rect x="96" y="12" width="12" height="12" transform="rotate(0,102,18)"/><rect x="96" y="24" width="12" height="12" transform="rotate(0,102,30)"/><rect x="96" y="48" width="12" height="12" transform="rotate(0,102,54)"/><rect x="96" y="72" width="12" height="12" transform="rotate(0,102,78)"/><rect x="96" y="84" width="12" height="12" transform="rotate(0,102,90)"/><rect x="96" y="108" width="12" height="12" transform="rotate(0,102,114)"/><rect x="96" y="120" width="12" height="12" transform="rotate(0,102,126)"/><rect x="96" y="132" width="12" height="12" transform="rotate(0,102,138)"/><rect x="96" y="192" width="12" height="12" transform="rotate(0,102,198)"/><rect x="96" y="216" width="12" height="12" transform="rotate(0,102,222)"/><rect x="96" y="240" width="12" height="12" transform="rotate(0,102,246)"/><rect x="96" y="252" width="12" height="12" transform="rotate(0,102,258)"/><rect x="96" y="264" width="12" height="12" transform="rotate(0,102,270)"/><rect x="96" y="276" width="12" height="12" transform="rotate(0,102,282)"/><rect x="96" y="288" width="12" height="12" transform="rotate(0,102,294)"/><rect x="108" y="0" width="12" height="12" transform="rotate(0,114,6)"/><rect x="108" y="36" width="12" height="12" transform="rotate(0,114,42)"/><rect x="108" y="60" width="12" height="12" transform="rotate(0,114,66)"/><rect x="108" y="108" width="12" height="12" transform="rotate(0,114,114)"/><rect x="108" y="120" width="12" height="12" transform="rotate(0,114,126)"/><rect x="108" y="132" width="12" height="12" transform="rotate(0,114,138)"/><rect x="108" y="156" width="12" height="12" transform="rotate(0,114,162)"/><rect x="108" y="180" width="12" height="12" transform="rotate(0,114,186)"/><rect x="108" y="192" width="12" height="12" transform="rotate(0,114,198)"/><rect x="108" y="204" width="12" height="12" transform="rotate(0,114,210)"/><rect x="108" y="216" width="12" height="12" transform="rotate(0,114,222)"/><rect x="108" y="252" width="12" height="12" transform="rotate(0,114,258)"/><rect x="108" y="276" width="12" height="12" transform="rotate(0,114,282)"/><rect x="108" y="288" width="12" height="12" transform="rotate(0,114,294)"/><rect x="120" y="12" width="12" height="12" transform="rotate(0,126,18)"/><rect x="120" y="24" width="12" height="12" transform="rotate(0,126,30)"/><rect x="120" y="36" width="12" height="12" transform="rotate(0,126,42)"/><rect x="120" y="48" width="12" height="12" transform="rotate(0,126,54)"/><rect x="120" y="72" width="12" height="12" transform="rotate(0,126,78)"/><rect x="120" y="144" width="12" height="12" transform="rotate(0,126,150)"/><rect x="120" y="168" width="12" height="12" transform="rotate(0,126,174)"/><rect x="120" y="180" width="12" height="12" transform="rotate(0,126,186)"/><rect x="120" y="192" width="12" height="12" transform="rotate(0,126,198)"/><rect x="120" y="204" width="12" height="12" transform="rotate(0,126,210)"/><rect x="120" y="216" width="12" height="12" transform="rotate(0,126,222)"/><rect x="120" y="240" width="12" height="12" transform="rotate(0,126,246)"/><rect x="120" y="252" width="12" height="12" transform="rotate(0,126,258)"/><rect x="120" y="264" width="12" height="12" transform="rotate(0,126,270)"/><rect x="120" y="276" width="12" height="12" transform="rotate(0,126,282)"/><rect x="120" y="288" width="12" height="12" transform="rotate(0,126,294)"/><rect x="132" y="0" width="12" height="12" transform="rotate(0,138,6)"/><rect x="132" y="12" width="12" height="12" transform="rotate(0,138,18)"/><rect x="132" y="36" width="12" height="12" transform="rotate(0,138,42)"/><rect x="132" y="48" width="12" height="12" transform="rotate(0,138,54)"/><rect x="132" y="84" width="12" height="12" transform="rotate(0,138,90)"/><rect x="132" y="132" width="12" height="12" transform="rotate(0,138,138)"/><rect x="132" y="144" width="12" height="12" transform="rotate(0,138,150)"/><rect x="132" y="156" width="12" height="12" transform="rotate(0,138,162)"/><rect x="132" y="168" width="12" height="12" transform="rotate(0,138,174)"/><rect x="132" y="192" width="12" height="12" transform="rotate(0,138,198)"/><rect x="132" y="276" width="12" height="12" transform="rotate(0,138,282)"/><rect x="144" y="48" width="12" height="12" transform="rotate(0,150,54)"/><rect x="144" y="72" width="12" height="12" transform="rotate(0,150,78)"/><rect x="144" y="84" width="12" height="12" transform="rotate(0,150,90)"/><rect x="144" y="96" width="12" height="12" transform="rotate(0,150,102)"/><rect x="144" y="108" width="12" height="12" transform="rotate(0,150,114)"/><rect x="144" y="120" width="12" height="12" transform="rotate(0,150,126)"/><rect x="144" y="144" width="12" height="12" transform="rotate(0,150,150)"/><rect x="144" y="168" width="12" height="12" transform="rotate(0,150,174)"/><rect x="144" y="180" width="12" height="12" transform="rotate(0,150,186)"/><rect x="144" y="204" width="12" height="12" transform="rotate(0,150,210)"/><rect x="144" y="216" width="12" height="12" transform="rotate(0,150,222)"/><rect x="144" y="228" width="12" height="12" transform="rotate(0,150,234)"/><rect x="156" y="36" width="12" height="12" transform="rotate(0,162,42)"/><rect x="156" y="84" width="12" height="12" transform="rotate(0,162,90)"/><rect x="156" y="108" width="12" height="12" transform="rotate(0,162,114)"/><rect x="156" y="144" width="12" height="12" transform="rotate(0,162,150)"/><rect x="156" y="156" width="12" height="12" transform="rotate(0,162,162)"/><rect x="156" y="168" width="12" height="12" transform="rotate(0,162,174)"/><rect x="156" y="180" width="12" height="12" transform="rotate(0,162,186)"/><rect x="156" y="216" width="12" height="12" transform="rotate(0,162,222)"/><rect x="156" y="264" width="12" height="12" transform="rotate(0,162,270)"/><rect x="156" y="288" width="12" height="12" transform="rotate(0,162,294)"/><rect x="168" y="0" width="12" height="12" transform="rotate(0,174,6)"/><rect x="168" y="24" width="12" height="12" transform="rotate(0,174,30)"/><rect x="168" y="36" width="12" height="12" transform="rotate(0,174,42)"/><rect x="168" y="48" width="12" height="12" transform="rotate(0,174,54)"/><rect x="168" y="72" width="12" height="12" transform="rotate(0,174,78)"/><rect x="168" y="84" width="12" height="12" transform="rotate(0,174,90)"/><rect x="168" y="108" width="12" height="12" transform="rotate(0,174,114)"/><rect x="168" y="120" width="12" height="12" transform="rotate(0,174,126)"/><rect x="168" y="132" width="12" height="12" transform="rotate(0,174,138)"/><rect x="168" y="156" width="12" height="12" transform="rotate(0,174,162)"/><rect x="168" y="240" width="12" height="12" transform="rotate(0,174,246)"/><rect x="168" y="252" width="12" height="12" transform="rotate(0,174,258)"/><rect x="168" y="264" width="12" height="12" transform="rotate(0,174,270)"/><rect x="168" y="276" width="12" height="12" transform="rotate(0,174,282)"/><rect x="168" y="288" width="12" height="12" transform="rotate(0,174,294)"/><rect x="180" y="12" width="12" height="12" transform="rotate(0,186,18)"/><rect x="180" y="48" width="12" height="12" transform="rotate(0,186,54)"/><rect x="180" y="60" width="12" height="12" transform="rotate(0,186,66)"/><rect x="180" y="84" width="12" height="12" transform="rotate(0,186,90)"/><rect x="180" y="96" width="12" height="12" transform="rotate(0,186,102)"/><rect x="180" y="108" width="12" height="12" transform="rotate(0,186,114)"/><rect x="180" y="180" width="12" height="12" transform="rotate(0,186,186)"/><rect x="180" y="204" width="12" height="12" transform="rotate(0,186,210)"/><rect x="180" y="228" width="12" height="12" transform="rotate(0,186,234)"/><rect x="192" y="0" width="12" height="12" transform="rotate(0,198,6)"/><rect x="192" y="24" width="12" height="12" transform="rotate(0,198,30)"/><rect x="192" y="36" width="12" height="12" transform="rotate(0,198,42)"/><rect x="192" y="72" width="12" height="12" transform="rotate(0,198,78)"/><rect x="192" y="84" width="12" height="12" transform="rotate(0,198,90)"/><rect x="192" y="96" width="12" height="12" transform="rotate(0,198,102)"/><rect x="192" y="132" width="12" height="12" transform="rotate(0,198,138)"/><rect x="192" y="156" width="12" height="12" transform="rotate(0,198,162)"/><rect x="192" y="192" width="12" height="12" transform="rotate(0,198,198)"/><rect x="192" y="204" width="12" height="12" transform="rotate(0,198,210)"/><rect x="192" y="216" width="12" height="12" transform="rotate(0,198,222)"/><rect x="192" y="228" width="12" height="12" transform="rotate(0,198,234)"/><rect x="192" y="240" width="12" height="12" transform="rotate(0,198,246)"/><rect x="192" y="252" width="12" height="12" transform="rotate(0,198,258)"/><rect x="192" y="276" width="12" height="12" transform="rotate(0,198,282)"/><rect x="192" y="288" width="12" height="12" transform="rotate(0,198,294)"/><rect x="204" y="96" width="12" height="12" transform="rotate(0,210,102)"/><rect x="204" y="144" width="12" height="12" transform="rotate(0,210,150)"/><rect x="204" y="156" width="12" height="12" transform="rotate(0,210,162)"/><rect x="204" y="180" width="12" height="12" transform="rotate(0,210,186)"/><rect x="204" y="192" width="12" height="12" transform="rotate(0,210,198)"/><rect x="204" y="240" width="12" height="12" transform="rotate(0,210,246)"/><rect x="204" y="252" width="12" height="12" transform="rotate(0,210,258)"/><rect x="204" y="276" width="12" height="12" transform="rotate(0,210,282)"/><rect x="204" y="288" width="12" height="12" transform="rotate(0,210,294)"/><rect x="216" y="96" width="12" height="12" transform="rotate(0,222,102)"/><rect x="216" y="108" width="12" height="12" transform="rotate(0,222,114)"/><rect x="216" y="144" width="12" height="12" transform="rotate(0,222,150)"/><rect x="216" y="156" width="12" height="12" transform="rotate(0,222,162)"/><rect x="216" y="168" width="12" height="12" transform="rotate(0,222,174)"/><rect x="216" y="192" width="12" height="12" transform="rotate(0,222,198)"/><rect x="216" y="216" width="12" height="12" transform="rotate(0,222,222)"/><rect x="216" y="240" width="12" height="12" transform="rotate(0,222,246)"/><rect x="216" y="264" width="12" height="12" transform="rotate(0,222,270)"/><rect x="216" y="276" width="12" height="12" transform="rotate(0,222,282)"/><rect x="216" y="288" width="12" height="12" transform="rotate(0,222,294)"/><rect x="228" y="108" width="12" height="12" transform="rotate(0,234,114)"/><rect x="228" y="132" width="12" height="12" transform="rotate(0,234,138)"/><rect x="228" y="144" width="12" height="12" transform="rotate(0,234,150)"/><rect x="228" y="156" width="12" height="12" transform="rotate(0,234,162)"/><rect x="228" y="192" width="12" height="12" transform="rotate(0,234,198)"/><rect x="228" y="240" width="12" height="12" transform="rotate(0,234,246)"/><rect x="228" y="276" width="12" height="12" transform="rotate(0,234,282)"/><rect x="240" y="96" width="12" height="12" transform="rotate(0,246,102)"/><rect x="240" y="180" width="12" height="12" transform="rotate(0,246,186)"/><rect x="240" y="192" width="12" height="12" transform="rotate(0,246,198)"/><rect x="240" y="204" width="12" height="12" transform="rotate(0,246,210)"/><rect x="240" y="216" width="12" height="12" transform="rotate(0,246,222)"/><rect x="240" y="228" width="12" height="12" transform="rotate(0,246,234)"/><rect x="240" y="240" width="12" height="12" transform="rotate(0,246,246)"/><rect x="240" y="276" width="12" height="12" transform="rotate(0,246,282)"/><rect x="252" y="132" width="12" height="12" transform="rotate(0,258,138)"/><rect x="252" y="144" width="12" height="12" transform="rotate(0,258,150)"/><rect x="252" y="180" width="12" height="12" transform="rotate(0,258,186)"/><rect x="252" y="192" width="12" height="12" transform="rotate(0,258,198)"/><rect x="252" y="228" width="12" height="12" transform="rotate(0,258,234)"/><rect x="252" y="240" width="12" height="12" transform="rotate(0,258,246)"/><rect x="252" y="264" width="12" height="12" transform="rotate(0,258,270)"/><rect x="252" y="276" width="12" height="12" transform="rotate(0,258,282)"/><rect x="264" y="96" width="12" height="12" transform="rotate(0,270,102)"/><rect x="264" y="120" width="12" height="12" transform="rotate(0,270,126)"/><rect x="264" y="144" width="12" height="12" transform="rotate(0,270,150)"/><rect x="264" y="156" width="12" height="12" transform="rotate(0,270,162)"/><rect x="264" y="168" width="12" height="12" transform="rotate(0,270,174)"/><rect x="264" y="180" width="12" height="12" transform="rotate(0,270,186)"/><rect x="264" y="204" width="12" height="12" transform="rotate(0,270,210)"/><rect x="264" y="240" width="12" height="12" transform="rotate(0,270,246)"/><rect x="264" y="264" width="12" height="12" transform="rotate(0,270,270)"/><rect x="264" y="288" width="12" height="12" transform="rotate(0,270,294)"/><rect x="276" y="96" width="12" height="12" transform="rotate(0,282,102)"/><rect x="276" y="108" width="12" height="12" transform="rotate(0,282,114)"/><rect x="276" y="132" width="12" height="12" transform="rotate(0,282,138)"/><rect x="276" y="144" width="12" height="12" transform="rotate(0,282,150)"/><rect x="276" y="156" width="12" height="12" transform="rotate(0,282,162)"/><rect x="276" y="180" width="12" height="12" transform="rotate(0,282,186)"/><rect x="276" y="276" width="12" height="12" transform="rotate(0,282,282)"/><rect x="288" y="108" width="12" height="12" transform="rotate(0,294,114)"/><rect x="288" y="132" width="12" height="12" transform="rotate(0,294,138)"/><rect x="288" y="144" width="12" height="12" transform="rotate(0,294,150)"/><rect x="288" y="192" width="12" height="12" transform="rotate(0,294,198)"/><rect x="288" y="216" width="12" height="12" transform="rotate(0,294,222)"/><rect x="288" y="228" width="12" height="12" transform="rotate(0,294,234)"/><rect x="288" y="240" width="12" height="12" transform="rotate(0,294,246)"/><rect x="288" y="276" width="12" height="12" transform="rotate(0,294,282)"/><rect x="288" y="288" width="12" height="12" transform="rotate(0,294,294)"/><rect x="0" y="0" width="12" height="12" transform="rotate(0,6,6)"/><rect x="0" y="12" width="12" height="12" transform="rotate(0,6,18)"/><rect x="0" y="24" width="12" height="12" transform="rotate(0,6,30)"/><rect x="0" y="36" width="12" height="12" transform="rotate(0,6,42)"/><rect x="0" y="48" width="12" height="12" transform="rotate(0,6,54)"/><rect x="0" y="60" width="12" height="12" transform="rotate(0,6,66)"/><rect x="0" y="72" width="12" height="12" transform="rotate(0,6,78)"/><rect x="12" y="0" width="12" height="12" transform="rotate(0,18,6)"/><rect x="12" y="72" width="12" height="12" transform="rotate(0,18,78)"/><rect x="24" y="0" width="12" height="12" transform="rotate(0,30,6)"/><rect x="24" y="72" width="12" height="12" transform="rotate(0,30,78)"/><rect x="36" y="0" width="12" height="12" transform="rotate(0,42,6)"/><rect x="36" y="72" width="12" height="12" transform="rotate(0,42,78)"/><rect x="48" y="0" width="12" height="12" transform="rotate(0,54,6)"/><rect x="48" y="72" width="12" height="12" transform="rotate(0,54,78)"/><rect x="60" y="0" width="12" height="12" transform="rotate(0,66,6)"/><rect x="60" y="72" width="12" height="12" transform="rotate(0,66,78)"/><rect x="72" y="0" width="12" height="12" transform="rotate(0,78,6)"/><rect x="72" y="12" width="12" height="12" transform="rotate(0,78,18)"/><rect x="72" y="24" width="12" height="12" transform="rotate(0,78,30)"/><rect x="72" y="36" width="12" height="12" transform="rotate(0,78,42)"/><rect x="72" y="48" width="12" height="12" transform="rotate(0,78,54)"/><rect x="72" y="60" width="12" height="12" transform="rotate(0,78,66)"/><rect x="72" y="72" width="12" height="12" transform="rotate(0,78,78)"/><rect x="24" y="24" width="12" height="12" transform="rotate(0,30,30)"/><rect x="24" y="36" width="12" height="12" transform="rotate(0,30,42)"/><rect x="24" y="48" width="12" height="12" transform="rotate(0,30,54)"/><rect x="36" y="24" width="12" height="12" transform="rotate(0,42,30)"/><rect x="36" y="36" width="12" height="12" transform="rotate(0,42,42)"/><rect x="36" y="48" width="12" height="12" transform="rotate(0,42,54)"/><rect x="48" y="24" width="12" height="12" transform="rotate(0,54,30)"/><rect x="48" y="36" width="12" height="12" transform="rotate(0,54,42)"/><rect x="48" y="48" width="12" height="12" transform="rotate(0,54,54)"/><rect x="216" y="0" width="12" height="12" transform="rotate(0,222,6)"/><rect x="216" y="12" width="12" height="12" transform="rotate(0,222,18)"/><rect x="216" y="24" width="12" height="12" transform="rotate(0,222,30)"/><rect x="216" y="36" width="12" height="12" transform="rotate(0,222,42)"/><rect x="216" y="48" width="12" height="12" transform="rotate(0,222,54)"/><rect x="216" y="60" width="12" height="12" transform="rotate(0,222,66)"/><rect x="216" y="72" width="12" height="12" transform="rotate(0,222,78)"/><rect x="228" y="0" width="12" height="12" transform="rotate(0,234,6)"/><rect x="228" y="72" width="12" height="12" transform="rotate(0,234,78)"/><rect x="240" y="0" width="12" height="12" transform="rotate(0,246,6)"/><rect x="240" y="72" width="12" height="12" transform="rotate(0,246,78)"/><rect x="252" y="0" width="12" height="12" transform="rotate(0,258,6)"/><rect x="252" y="72" width="12" height="12" transform="rotate(0,258,78)"/><rect x="264" y="0" width="12" height="12" transform="rotate(0,270,6)"/><rect x="264" y="72" width="12" height="12" transform="rotate(0,270,78)"/><rect x="276" y="0" width="12" height="12" transform="rotate(0,282,6)"/><rect x="276" y="72" width="12" height="12" transform="rotate(0,282,78)"/><rect x="288" y="0" width="12" height="12" transform="rotate(0,294,6)"/><rect x="288" y="12" width="12" height="12" transform="rotate(0,294,18)"/><rect x="288" y="24" width="12" height="12" transform="rotate(0,294,30)"/><rect x="288" y="36" width="12" height="12" transform="rotate(0,294,42)"/><rect x="288" y="48" width="12" height="12" transform="rotate(0,294,54)"/><rect x="288" y="60" width="12" height="12" transform="rotate(0,294,66)"/><rect x="288" y="72" width="12" height="12" transform="rotate(0,294,78)"/><rect x="240" y="24" width="12" height="12" transform="rotate(0,246,30)"/><rect x="240" y="36" width="12" height="12" transform="rotate(0,246,42)"/><rect x="240" y="48" width="12" height="12" transform="rotate(0,246,54)"/><rect x="252" y="24" width="12" height="12" transform="rotate(0,258,30)"/><rect x="252" y="36" width="12" height="12" transform="rotate(0,258,42)"/><rect x="252" y="48" width="12" height="12" transform="rotate(0,258,54)"/><rect x="264" y="24" width="12" height="12" transform="rotate(0,270,30)"/><rect x="264" y="36" width="12" height="12" transform="rotate(0,270,42)"/><rect x="264" y="48" width="12" height="12" transform="rotate(0,270,54)"/><rect x="0" y="216" width="12" height="12" transform="rotate(0,6,222)"/><rect x="0" y="228" width="12" height="12" transform="rotate(0,6,234)"/><rect x="0" y="240" width="12" height="12" transform="rotate(0,6,246)"/><rect x="0" y="252" width="12" height="12" transform="rotate(0,6,258)"/><rect x="0" y="264" width="12" height="12" transform="rotate(0,6,270)"/><rect x="0" y="276" width="12" height="12" transform="rotate(0,6,282)"/><rect x="0" y="288" width="12" height="12" transform="rotate(0,6,294)"/><rect x="12" y="216" width="12" height="12" transform="rotate(0,18,222)"/><rect x="12" y="288" width="12" height="12" transform="rotate(0,18,294)"/><rect x="24" y="216" width="12" height="12" transform="rotate(0,30,222)"/><rect x="24" y="288" width="12" height="12" transform="rotate(0,30,294)"/><rect x="36" y="216" width="12" height="12" transform="rotate(0,42,222)"/><rect x="36" y="288" width="12" height="12" transform="rotate(0,42,294)"/><rect x="48" y="216" width="12" height="12" transform="rotate(0,54,222)"/><rect x="48" y="288" width="12" height="12" transform="rotate(0,54,294)"/><rect x="60" y="216" width="12" height="12" transform="rotate(0,66,222)"/><rect x="60" y="288" width="12" height="12" transform="rotate(0,66,294)"/><rect x="72" y="216" width="12" height="12" transform="rotate(0,78,222)"/><rect x="72" y="228" width="12" height="12" transform="rotate(0,78,234)"/><rect x="72" y="240" width="12" height="12" transform="rotate(0,78,246)"/><rect x="72" y="252" width="12" height="12" transform="rotate(0,78,258)"/><rect x="72" y="264" width="12" height="12" transform="rotate(0,78,270)"/><rect x="72" y="276" width="12" height="12" transform="rotate(0,78,282)"/><rect x="72" y="288" width="12" height="12" transform="rotate(0,78,294)"/><rect x="24" y="240" width="12" height="12" transform="rotate(0,30,246)"/><rect x="24" y="252" width="12" height="12" transform="rotate(0,30,258)"/><rect x="24" y="264" width="12" height="12" transform="rotate(0,30,270)"/><rect x="36" y="240" width="12" height="12" transform="rotate(0,42,246)"/><rect x="36" y="252" width="12" height="12" transform="rotate(0,42,258)"/><rect x="36" y="264" width="12" height="12" transform="rotate(0,42,270)"/><rect x="48" y="240" width="12" height="12" transform="rotate(0,54,246)"/><rect x="48" y="252" width="12" height="12" transform="rotate(0,54,258)"/><rect x="48" y="264" width="12" height="12" transform="rotate(0,54,270)"/></clipPath></defs><rect x="0" y="0" height="300" width="300" clip-path="url('#clip-path-background-color')" fill="#fff"/><rect x="0" y="0" height="300" width="300" clip-path="url('#clip-path-dot-color')" fill="#ebebeb"/></svg>